<?xml version="1.0" encoding="UTF-8"?>
<svg xmlns="http://www.w3.org/2000/svg" xmlns:xlink="http://www.w3.org/1999/xlink" width="50px" height="50px" viewBox="0 0 50 50" version="1.1">
<g id="surface1">
<path style=" stroke:none;fill-rule:nonzero;fill:rgb(60%,60%,60%);fill-opacity:1;" d="M 21.84375 2.511719 L 23.917969 18.796875 L 26.917969 18.796875 L 28.992188 2.511719 Z M 23.746094 20.488281 L 23.746094 23.835938 L 27.089844 23.835938 L 27.089844 20.488281 Z M 25.421875 28.300781 C 25.28125 28.300781 25.140625 28.304688 25 28.304688 C 24.878906 28.308594 24.761719 28.3125 24.644531 28.3125 L 24.539062 28.316406 C 24.414062 28.320312 24.285156 28.328125 24.160156 28.332031 C 24.042969 28.339844 23.925781 28.34375 23.808594 28.351562 C 23.789062 28.351562 23.765625 28.351562 23.746094 28.355469 C 19.890625 28.589844 16.425781 29.617188 13.859375 30.886719 C 12.394531 31.613281 11.226562 32.417969 10.464844 33.15625 C 9.703125 33.898438 9.410156 34.558594 9.410156 34.847656 C 9.410156 35.136719 9.628906 35.5625 10.359375 36.078125 C 11.085938 36.59375 12.246094 37.121094 13.71875 37.5625 C 16.65625 38.441406 20.820312 39.011719 25.421875 39.011719 C 30.019531 39.011719 34.1875 38.441406 37.128906 37.5625 C 38.597656 37.121094 39.757812 36.59375 40.488281 36.078125 C 41.214844 35.5625 41.433594 35.136719 41.433594 34.847656 C 41.433594 34.558594 41.144531 33.898438 40.382812 33.15625 C 39.617188 32.417969 38.449219 31.613281 36.984375 30.886719 C 34.421875 29.617188 30.953125 28.589844 27.097656 28.355469 C 27.074219 28.351562 27.054688 28.351562 27.03125 28.351562 C 26.917969 28.34375 26.800781 28.339844 26.683594 28.332031 C 26.554688 28.328125 26.429688 28.320312 26.304688 28.316406 C 26.289062 28.316406 26.277344 28.316406 26.261719 28.3125 C 26.242188 28.3125 26.21875 28.316406 26.195312 28.3125 C 26.078125 28.3125 25.964844 28.308594 25.84375 28.304688 C 25.703125 28.304688 25.5625 28.300781 25.421875 28.300781 Z M 25.421875 30.125 C 28 30.125 30.328125 30.554688 31.933594 31.203125 C 32.734375 31.523438 33.351562 31.90625 33.722656 32.257812 C 34.09375 32.609375 34.199219 32.882812 34.199219 33.113281 C 34.199219 33.347656 34.09375 33.621094 33.722656 33.972656 C 33.566406 34.121094 33.367188 34.269531 33.132812 34.421875 C 32.648438 32.878906 29.378906 31.683594 25.417969 31.683594 C 21.457031 31.683594 18.191406 32.875 17.707031 34.417969 C 17.472656 34.269531 17.273438 34.117188 17.121094 33.972656 C 16.75 33.621094 16.640625 33.347656 16.640625 33.113281 C 16.640625 32.882812 16.75 32.609375 17.121094 32.257812 C 17.492188 31.90625 18.105469 31.523438 18.910156 31.199219 C 20.511719 30.554688 22.84375 30.125 25.421875 30.125 Z M 7.59375 34.984375 C 5.433594 36.324219 4.179688 37.921875 4.179688 39.636719 C 4.179688 44.359375 13.6875 48.191406 25.417969 48.191406 C 37.148438 48.191406 46.65625 44.359375 46.65625 39.636719 C 46.65625 37.921875 45.40625 36.328125 43.253906 34.992188 C 43.191406 36.039062 42.484375 36.898438 41.542969 37.566406 C 40.558594 38.265625 39.242188 38.832031 37.648438 39.308594 C 34.464844 40.265625 30.167969 40.835938 25.421875 40.835938 C 20.675781 40.835938 16.378906 40.265625 13.191406 39.308594 C 11.601562 38.832031 10.285156 38.265625 9.300781 37.566406 C 8.359375 36.898438 7.648438 36.035156 7.59375 34.984375 Z M 7.59375 34.984375 "/>
</g>
</svg>
