<?xml version="1.0" encoding="UTF-8"?>
<svg xmlns="http://www.w3.org/2000/svg" xmlns:xlink="http://www.w3.org/1999/xlink" width="50px" height="px" viewBox="0 0 50 50" version="1.1">
<g id="surface1">
<path style=" stroke:none;fill-rule:nonzero;fill:rgb(60%,60%,60%);fill-opacity:1;" d="M 34.921875 3.375 L 34.914062 3.375 C 34.953125 3.363281 34.25 3.8125 33.59375 4.484375 C 32.929688 5.15625 32.167969 6.042969 31.476562 6.9375 C 31.09375 7.414062 30.753906 7.886719 30.4375 8.339844 C 30.710938 8.589844 31.746094 9.121094 32.0625 9.269531 C 33.054688 7.703125 34.328125 6.070312 36.523438 5.539062 C 36.152344 4.796875 35.773438 3.714844 34.921875 3.375 Z M 22.257812 3.414062 C 18.359375 3.46875 13.984375 6.082031 11.875 9.300781 C 10.265625 11.75 9.175781 15.050781 8.964844 18.300781 C 8.75 21.554688 9.410156 24.746094 11.125 27.0625 C 11.367188 27.390625 11.671875 27.570312 12.140625 27.707031 C 12.609375 27.832031 13.214844 27.890625 13.886719 27.921875 C 15.226562 27.96875 16.835938 27.890625 18.214844 28.800781 C 19.386719 29.582031 19.84375 30.851562 20.324219 31.847656 C 20.558594 32.335938 20.773438 32.734375 20.996094 33.027344 L 20.996094 18.546875 L 29.003906 18.546875 L 29.003906 33.117188 C 32.589844 31.894531 35.996094 29.464844 38.117188 26.671875 C 39.453125 24.902344 40.507812 22.492188 40.898438 20.078125 C 41.300781 17.667969 41.035156 15.285156 39.933594 13.476562 C 39.179688 12.277344 37.714844 11.90625 35.8125 11.640625 C 33.898438 11.378906 31.671875 11.289062 29.863281 10.109375 C 28.320312 9.097656 27.480469 7.449219 26.621094 6.097656 C 25.761719 4.746094 24.980469 3.769531 23.886719 3.554688 C 23.359375 3.453125 22.8125 3.40625 22.257812 3.414062 Z M 22.753906 20.304688 L 22.753906 36.921875 L 17.382812 36.921875 L 25 47.050781 L 32.617188 36.921875 L 27.246094 36.921875 L 27.246094 20.304688 Z M 22.753906 20.304688 "/>
</g>
</svg>
