<?xml version="1.0" encoding="UTF-8"?>
<svg xmlns="http://www.w3.org/2000/svg" xmlns:xlink="http://www.w3.org/1999/xlink" width="50px" height="px" viewBox="0 0 50 50" version="1.1">
<g id="surface1">
<path style=" stroke:none;fill-rule:nonzero;fill:rgb(60%,60%,60%);fill-opacity:1;" d="M 29.84375 1.6875 C 29.148438 1.6875 28.476562 1.867188 27.96875 2.226562 C 27.46875 2.609375 27.070312 3.171875 26.769531 3.886719 C 25.828125 6.582031 25.996094 9.148438 25.976562 11.984375 L 25.976562 11.992188 L 24.148438 11.992188 L 24.148438 11.984375 C 24.121094 9.382812 24.265625 6.09375 23.359375 3.886719 C 23.058594 3.171875 22.65625 2.605469 22.15625 2.226562 C 21.085938 1.5625 18.847656 1.386719 17.859375 2.460938 C 17.507812 2.878906 17.324219 3.445312 17.851562 4.628906 C 18.417969 5.488281 18.867188 6.667969 19.257812 8.183594 L 17.480469 8.640625 C 16.828125 6.074219 16.007812 5.039062 15.449219 4.796875 C 14.023438 4.316406 11.609375 6.523438 11.640625 7.765625 C 12.023438 9.132812 13.132812 9.851562 14.375 10.4375 L 13.59375 12.089844 C 13.09375 11.847656 12.65625 11.601562 12.253906 11.347656 C 10.820312 10.558594 9.765625 10.214844 9.199219 10.265625 C 7.839844 10.410156 7.144531 13.46875 7.617188 14.296875 C 7.851562 14.679688 8.445312 15.089844 9.851562 15.226562 C 10.320312 15.207031 10.691406 15.292969 11.101562 15.285156 L 11.121094 17.109375 C 10.703125 17.109375 10.3125 17.101562 9.941406 17.070312 C 8.757812 17.0625 8.054688 17.15625 7.761719 17.304688 C 7.132812 17.871094 6.945312 19.109375 7.226562 19.875 C 7.332031 20.117188 7.480469 20.304688 7.839844 20.5 C 8.5625 20.890625 10.222656 21.132812 12.976562 20.898438 L 13.132812 22.714844 C 11.023438 22.890625 9.433594 22.863281 8.210938 22.558594 C 8.035156 24.367188 9.773438 25.175781 11.425781 25.207031 L 21.5625 25.207031 C 22.742188 25.207031 23.769531 24.335938 24.167969 22.753906 L 24.949219 19.628906 L 25.925781 22.707031 C 26.445312 24.328125 27.507812 25.207031 28.554688 25.207031 L 38.691406 25.207031 C 39.304688 25.207031 40.488281 24.824219 41.191406 24.210938 C 41.667969 23.761719 42.039062 23.164062 41.921875 22.539062 C 40.691406 22.863281 39.082031 22.902344 36.90625 22.714844 L 37.0625 20.898438 C 39.8125 21.132812 41.464844 20.890625 42.1875 20.5 C 42.976562 19.804688 43.25 17.785156 42.265625 17.304688 C 41.984375 17.160156 41.269531 17.0625 40.097656 17.070312 C 39.726562 17.101562 39.335938 17.109375 38.914062 17.109375 L 38.9375 15.285156 C 39.355469 15.265625 39.796875 15.234375 40.1875 15.226562 C 41.59375 15.089844 42.1875 14.679688 42.414062 14.296875 C 42.921875 13.046875 41.945312 10.390625 40.839844 10.265625 C 40.273438 10.214844 39.21875 10.558594 37.78125 11.347656 C 37.382812 11.601562 36.941406 11.847656 36.445312 12.089844 L 35.664062 10.441406 C 36.164062 10.226562 36.515625 9.972656 36.933594 9.726562 C 38.054688 8.980469 38.378906 8.292969 38.40625 7.753906 C 38.3125 6.40625 35.890625 4.21875 34.601562 4.796875 C 34.40625 4.875 34.179688 5.058594 33.9375 5.371094 C 33.3125 6.359375 32.804688 7.6875 32.546875 8.632812 L 30.789062 8.183594 C 31.21875 6.496094 31.730469 5.214844 32.382812 4.335938 C 32.765625 3.359375 32.589844 2.84375 32.265625 2.460938 C 31.660156 1.964844 30.742188 1.691406 29.84375 1.691406 Z M 9.390625 27.539062 C 7.710938 27.539062 6.21875 29.335938 6.21875 31.6875 C 6.21875 32.898438 6.617188 33.976562 7.222656 34.71875 L 7.828125 35.476562 L 6.863281 35.625 C 5.945312 35.773438 5.320312 36.210938 4.804688 36.90625 C 4.285156 37.597656 3.90625 38.554688 3.671875 39.679688 C 3.210938 41.71875 3.199219 43.640625 3.199219 45.828125 L 5.730469 45.828125 L 5.847656 48.242188 L 12.742188 48.242188 L 12.882812 45.828125 L 15.546875 45.828125 C 15.539062 43.671875 15.429688 41.777344 14.929688 39.746094 C 14.65625 38.640625 14.277344 37.675781 13.757812 36.972656 C 13.261719 36.28125 12.648438 35.839844 11.816406 35.683594 L 10.867188 35.507812 L 11.492188 34.773438 C 12.117188 34.015625 12.546875 32.929688 12.546875 31.6875 C 12.546875 29.472656 11.210938 27.746094 9.703125 27.539062 Z M 25.019531 27.539062 C 23.339844 27.539062 21.84375 29.335938 21.84375 31.6875 C 21.84375 32.898438 22.246094 33.976562 22.851562 34.71875 L 23.457031 35.476562 L 22.492188 35.625 C 21.570312 35.773438 20.945312 36.210938 20.429688 36.90625 C 19.910156 37.597656 19.53125 38.554688 19.296875 39.679688 C 18.835938 41.71875 18.828125 43.640625 18.828125 45.828125 L 21.359375 45.828125 L 21.472656 48.242188 L 28.367188 48.242188 L 28.503906 45.828125 L 31.171875 45.828125 C 31.160156 43.671875 31.054688 41.777344 30.554688 39.746094 C 30.28125 38.640625 29.902344 37.675781 29.382812 36.972656 C 28.886719 36.28125 28.273438 35.839844 27.441406 35.683594 L 26.492188 35.507812 L 27.117188 34.773438 C 27.742188 34.015625 28.171875 32.929688 28.171875 31.6875 C 28.171875 29.472656 26.835938 27.746094 25.332031 27.539062 Z M 40.644531 27.539062 C 38.976562 27.539062 37.480469 29.335938 37.480469 31.6875 C 37.480469 32.898438 37.882812 33.976562 38.484375 34.71875 L 39.09375 35.476562 L 38.125 35.625 C 37.207031 35.773438 36.574219 36.210938 36.054688 36.90625 C 35.539062 37.597656 35.15625 38.554688 34.921875 39.679688 C 34.460938 41.71875 34.453125 43.640625 34.453125 45.828125 L 36.984375 45.828125 L 37.101562 48.242188 L 44.003906 48.242188 L 44.140625 45.828125 L 46.796875 45.828125 C 46.785156 43.671875 46.679688 41.777344 46.191406 39.746094 C 45.917969 38.640625 45.527344 37.675781 45.007812 36.972656 C 44.511719 36.28125 43.894531 35.839844 43.074219 35.683594 L 42.128906 35.507812 L 42.742188 34.773438 C 43.367188 34.015625 43.796875 32.929688 43.796875 31.6875 C 43.796875 29.472656 42.460938 27.746094 40.957031 27.539062 Z M 40.644531 27.539062 "/>
</g>
</svg>
