<?xml version="1.0" encoding="UTF-8"?>
<svg xmlns="http://www.w3.org/2000/svg" xmlns:xlink="http://www.w3.org/1999/xlink" width="50px" height="50px" viewBox="0 0 50 50" version="1.1">
<g id="surface1">
<path style=" stroke:none;fill-rule:nonzero;fill:rgb(60%,60%,60%);fill-opacity:1;" d="M 30.324219 1.832031 L 28.867188 7.277344 C 27.589844 7 26.3125 6.871094 25.050781 6.871094 L 25.050781 8.691406 C 26.15625 8.695312 27.273438 8.808594 28.394531 9.042969 L 26.980469 14.324219 C 27.269531 14.375 27.558594 14.441406 27.847656 14.519531 C 28.152344 14.601562 28.449219 14.695312 28.742188 14.800781 L 30.15625 9.515625 C 31.242188 9.871094 32.269531 10.332031 33.226562 10.882812 L 34.136719 9.300781 C 33.046875 8.671875 31.875 8.148438 30.628906 7.746094 L 32.214844 1.832031 Z M 20.351562 7.496094 C 17.277344 8.324219 14.464844 9.953125 12.214844 12.199219 L 13.5 13.484375 C 14.292969 12.6875 15.167969 11.980469 16.105469 11.367188 L 18.832031 16.089844 C 19.332031 15.742188 19.863281 15.4375 20.414062 15.179688 L 17.683594 10.453125 C 18.683594 9.945312 19.734375 9.542969 20.820312 9.25 Z M 37.898438 12.195312 L 36.613281 13.476562 C 37.410156 14.277344 38.117188 15.152344 38.730469 16.085938 L 33.976562 18.832031 C 34.324219 19.335938 34.625 19.863281 34.886719 20.414062 L 39.644531 17.667969 C 40.148438 18.667969 40.550781 19.71875 40.84375 20.808594 L 42.597656 20.335938 C 41.769531 17.261719 40.144531 14.449219 37.898438 12.195312 Z M 9.328125 15.960938 C 8.699219 17.050781 8.175781 18.222656 7.777344 19.464844 L 1.84375 17.875 L 1.84375 19.765625 L 7.304688 21.226562 C 7.03125 22.503906 6.902344 23.777344 6.902344 25.039062 L 8.722656 25.039062 C 8.722656 23.9375 8.835938 22.820312 9.070312 21.699219 L 14.328125 23.109375 C 14.382812 22.808594 14.449219 22.507812 14.53125 22.207031 C 14.609375 21.914062 14.699219 21.628906 14.800781 21.347656 L 9.542969 19.9375 C 9.894531 18.851562 10.355469 17.828125 10.90625 16.871094 Z M 25.152344 17.960938 C 25.0625 17.960938 24.976562 17.964844 24.890625 17.964844 C 21.871094 18.089844 19.144531 20.148438 18.324219 23.214844 C 17.3125 26.984375 19.5625 30.882812 23.335938 31.894531 C 27.105469 32.90625 31.003906 30.652344 32.015625 26.882812 C 33.023438 23.113281 30.773438 19.210938 27.003906 18.203125 C 26.386719 18.035156 25.761719 17.957031 25.152344 17.960938 Z M 25.148438 19.78125 C 25.273438 19.78125 25.402344 19.789062 25.527344 19.796875 L 24.992188 21.785156 C 25.078125 21.777344 25.167969 21.773438 25.257812 21.773438 C 25.808594 21.773438 26.328125 21.910156 26.785156 22.152344 L 27.300781 20.234375 C 29.378906 21.148438 30.632812 23.296875 30.40625 25.554688 L 28.539062 25.046875 C 28.539062 25.050781 28.539062 25.050781 28.539062 25.054688 C 28.539062 25.695312 28.351562 26.296875 28.03125 26.800781 L 29.917969 27.3125 C 28.964844 29.332031 26.824219 30.53125 24.589844 30.28125 L 25.117188 28.332031 C 24.472656 28.304688 23.878906 28.089844 23.382812 27.746094 L 22.835938 29.765625 C 20.902344 28.816406 19.742188 26.769531 19.925781 24.617188 L 21.980469 25.171875 C 21.980469 25.132812 21.976562 25.09375 21.976562 25.054688 C 21.976562 24.449219 22.140625 23.886719 22.425781 23.398438 L 20.386719 22.851562 C 21.214844 21.03125 22.996094 19.863281 24.953125 19.785156 C 25.019531 19.785156 25.085938 19.78125 25.148438 19.78125 Z M 41.394531 25.039062 C 41.394531 26.140625 41.277344 27.261719 41.042969 28.378906 L 35.738281 26.957031 C 35.683594 27.25 35.617188 27.542969 35.539062 27.839844 C 35.460938 28.136719 35.367188 28.433594 35.261719 28.71875 L 40.570312 30.140625 C 40.214844 31.226562 39.75 32.25 39.199219 33.207031 L 40.78125 34.121094 C 41.410156 33.027344 41.933594 31.855469 42.335938 30.613281 L 48.257812 32.203125 L 48.257812 30.3125 L 42.808594 28.851562 C 43.085938 27.578125 43.214844 26.300781 43.21875 25.039062 Z M 9.28125 29.265625 L 7.523438 29.734375 C 8.355469 32.804688 9.976562 35.617188 12.222656 37.867188 L 13.507812 36.582031 C 12.714844 35.785156 12.003906 34.914062 11.394531 33.976562 L 16.117188 31.25 C 15.769531 30.75 15.464844 30.222656 15.203125 29.671875 L 10.480469 32.398438 C 9.976562 31.402344 9.570312 30.351562 9.28125 29.265625 Z M 31.25 33.949219 C 30.75 34.296875 30.21875 34.601562 29.667969 34.859375 L 32.414062 39.617188 C 31.417969 40.121094 30.367188 40.523438 29.277344 40.8125 L 29.75 42.566406 C 32.820312 41.742188 35.632812 40.117188 37.886719 37.875 L 36.601562 36.589844 C 35.804688 37.386719 34.933594 38.09375 33.996094 38.703125 Z M 21.367188 35.261719 L 19.953125 40.542969 C 18.867188 40.1875 17.84375 39.726562 16.890625 39.175781 L 15.976562 40.753906 C 17.070312 41.382812 18.238281 41.90625 19.480469 42.308594 L 17.890625 48.246094 L 19.777344 48.246094 L 21.242188 42.78125 C 22.515625 43.054688 23.792969 43.1875 25.050781 43.1875 L 25.050781 41.363281 C 23.949219 41.363281 22.832031 41.25 21.714844 41.015625 L 23.132812 35.730469 C 22.828125 35.675781 22.523438 35.609375 22.21875 35.527344 C 21.929688 35.449219 21.644531 35.359375 21.367188 35.261719 Z M 21.367188 35.261719 "/>
</g>
</svg>
